# xmcd
#
# Track frame offsets: 
#        150
#        10802
#        25287
#        52125
#        65912
#        77752
#        91857
#        106929
#        119985
#        134092
#        148595
#        160495
#        175035
#        189442
#        206257
#        221392
#        234990
#        249557
#        265075
#        279772
#        293932
#        307950
#
# Disc length: 4266 seconds
#
# Revision: 4
# Processed by: cddbd v1.5.2PL0 Copyright (c) Steve Scherf et al.
# Submitted via: ExactAudioCopyFreeDBPlugin 1.0
#
DISCID=4210a816
DTITLE=Mahalia Jackson - Mahalia Spirituals - CD1
DYEAR=2011
DGENRE=Gospel
TTITLE0=Amazing Grace
TTITLE1=Hands of God
TTITLE2=In The Upper Room
TTITLE3=Jesus Is With Me
TTITLE4=Get Away Jordan
TTITLE5=Up In Jerusalem
TTITLE6=Said He Would
TTITLE7=God Spoke To Me
TTITLE8=It's Real
TTITLE9=How I Got Over
TTITLE10=Didn't It Rain
TTITLE11=It Pays To Serve The Lord
TTITLE12=Just As I Am
TTITLE13=His Eye Is On The Sparrow
TTITLE14=I Wonder If I Will Ever Rest
TTITLE15=I Will Move On Up A Little Higher
TTITLE16=I Gave Up Everything To Follow Him
TTITLE17=Come To Jesus
TTITLE18=I Bowed On My Knees And Cried Holy
TTITLE19=The Lord's Prayer
TTITLE20=God's Gonna Separate The Wheat ...
TTITLE21=Keep Me Every Day
EXTD=
EXTT0=
EXTT1=
EXTT2=
EXTT3=
EXTT4=
EXTT5=
EXTT6=
EXTT7=
EXTT8=
EXTT9=
EXTT10=
EXTT11=
EXTT12=
EXTT13=
EXTT14=
EXTT15=
EXTT16=
EXTT17=
EXTT18=
EXTT19=
EXTT20=
EXTT21=
PLAYORDER=
